<svg width="150" height="150" viewBox="0 0 150 150" fill="none" xmlns="http://www.w3.org/2000/svg">
<path d="M103.042 79.066C105.159 79.066 106.875 77.3504 106.875 75.2341C106.875 73.1179 105.159 71.4023 103.042 71.4023C100.925 71.4023 99.2092 73.1179 99.2092 75.2341C99.2092 77.3504 100.925 79.066 103.042 79.066Z" fill="#0F6FD8"/>
<path d="M121.734 78.657C123.625 78.657 125.158 77.1245 125.158 75.2341C125.158 73.3438 123.625 71.8113 121.734 71.8113C119.843 71.8113 118.31 73.3438 118.31 75.2341C118.31 77.1245 119.843 78.657 121.734 78.657Z" fill="#0FA6C4"/>
<path d="M136.205 78.3341C137.917 78.3341 139.305 76.9462 139.305 75.2341C139.305 73.5221 137.917 72.1342 136.205 72.1342C134.492 72.1342 133.104 73.5221 133.104 75.2341C133.104 76.9462 134.492 78.3341 136.205 78.3341Z" fill="#10DFB3"/>
<path d="M13.741 78.2049C15.4536 78.2049 16.8419 76.817 16.8419 75.105C16.8419 73.3929 15.4536 72.0051 13.741 72.0051C12.0284 72.0051 10.6401 73.3929 10.6401 75.105C10.6401 76.817 12.0284 78.2049 13.741 78.2049Z" fill="#0A1BF5"/>
<path d="M27.2428 78.7215C29.2408 78.7215 30.8605 77.1023 30.8605 75.105C30.8605 73.1076 29.2408 71.4884 27.2428 71.4884C25.2448 71.4884 23.6251 73.1076 23.6251 75.105C23.6251 77.1023 25.2448 78.7215 27.2428 78.7215Z" fill="#0C53E2"/>
<path d="M74.9618 96.1585V109.225C65.4008 109.225 56.7226 105.329 50.4347 99.0431L59.6727 89.808C63.5919 93.7259 68.9969 96.137 74.9618 96.137V96.1585Z" fill="#0F6FD8"/>
<path d="M90.2509 89.808L99.4889 99.0431C93.201 105.329 84.5229 109.225 74.9618 109.225V96.1585C80.9267 96.1585 86.3317 93.7259 90.2509 89.8295V89.808Z" fill="#0F8BCF"/>
<path d="M96.6035 74.5238H109.675C109.675 84.0818 105.777 92.7572 99.489 99.0431L90.251 89.808C94.1702 85.8901 96.582 80.4868 96.582 74.5238H96.6035Z" fill="#0FA6C4"/>
<path d="M40.2707 74.5238H53.3418C53.3418 80.4868 55.7751 85.8901 59.6727 89.808L50.4347 99.0431C44.1468 92.7572 40.2491 84.0818 40.2491 74.5238H40.2707Z" fill="#0C53E2"/>
<path d="M74.9618 52.9105V39.8436C84.5229 39.8436 93.201 43.74 99.4889 50.0259L90.2509 59.261C86.3317 55.3431 80.9267 52.9321 74.9618 52.9321V52.9105Z" fill="#10DFB3"/>
<path d="M74.9618 52.9105C68.9969 52.9105 63.5919 55.3431 59.6727 59.2395L50.4347 50.0044C56.7226 43.7185 65.4008 39.8221 74.9618 39.8221V52.889V52.9105Z" fill="#0A1BF5"/>
<path d="M96.6034 74.5238C96.6034 68.5608 94.1701 63.1575 90.2725 59.2395L99.5105 50.0044C105.798 56.2903 109.696 64.9657 109.696 74.5238H96.625H96.6034Z" fill="#14C3BC"/>
<path d="M53.3418 74.5238H40.2708C40.2708 64.9657 44.1684 56.2903 50.4563 50.0044L59.6944 59.2395C55.7752 63.1575 53.3634 68.5608 53.3634 74.5238H53.3418Z" fill="#0C37EB"/>
<path d="M35.4471 74.5238C35.4471 52.7383 53.1696 35 74.9834 35C96.7758 35 114.52 52.7168 114.52 74.5238C114.52 96.3092 96.7973 114.048 74.9834 114.048C53.1911 114.048 35.4471 96.3307 35.4471 74.5238ZM40.3999 74.5238C40.3999 93.5752 55.9044 109.075 74.9619 109.075C94.0194 109.075 109.524 93.5752 109.524 74.5238C109.524 55.4723 94.0194 39.9728 74.9619 39.9728C55.9044 39.9728 40.3999 55.4723 40.3999 74.5238Z" fill="#001A78"/>
<path d="M53.3202 74.5237C53.3202 62.5977 63.032 52.889 74.9618 52.889C86.8916 52.889 96.6034 62.5977 96.6034 74.5237C96.6034 86.4498 86.8916 96.1585 74.9618 96.1585C63.032 96.1585 53.3202 86.4498 53.3202 74.5237ZM58.1869 74.5237C58.1869 83.7804 65.7022 91.2934 74.9618 91.2934C84.2214 91.2934 91.7367 83.7804 91.7367 74.5237C91.7367 65.2671 84.2214 57.7541 74.9618 57.7541C65.7022 57.7541 58.1869 65.2671 58.1869 74.5237Z" fill="#001A78"/>
<path d="M74.9404 80.1639C77.6639 80.1639 79.8717 77.9567 79.8717 75.2341C79.8717 72.5115 77.6639 70.3044 74.9404 70.3044C72.217 70.3044 70.0092 72.5115 70.0092 75.2341C70.0092 77.9567 72.217 80.1639 74.9404 80.1639Z" fill="#001A78"/>
</svg>
