<?xml version="1.0" encoding="UTF-8"?>
<svg id="Calque_1" xmlns="http://www.w3.org/2000/svg" xmlns:xlink="http://www.w3.org/1999/xlink" version="1.1" viewBox="0 0 432.5 225.8">
  <!-- Generator: Adobe Illustrator 29.2.1, SVG Export Plug-In . SVG Version: 2.1.0 Build 116)  -->
  <defs>
    <style>
      .st0 {
        fill: #e2e2e2;
      }

      .st1 {
        fill: url(#Dégradé_sans_nom_146);
      }

      .st2 {
        fill: url(#Dégradé_sans_nom_149);
      }

      .st3 {
        fill: #0d203f;
      }

      .st4 {
        fill: url(#Dégradé_sans_nom_1491);
      }
    </style>
    <radialGradient id="Dégradé_sans_nom_146" data-name="Dégradé sans nom 146" cx="300.1" cy="117.3" fx="300.1" fy="117.3" r="62.1" gradientUnits="userSpaceOnUse">
      <stop offset="0" stop-color="#3aff27"/>
      <stop offset="1" stop-color="#007cc0"/>
    </radialGradient>
    <radialGradient id="Dégradé_sans_nom_149" data-name="Dégradé sans nom 149" cx="588.5" cy="154.8" fx="588.5" fy="154.8" r="88.6" gradientTransform="translate(-420.4 -129) rotate(-.2)" gradientUnits="userSpaceOnUse">
      <stop offset="0" stop-color="#3aff27"/>
      <stop offset="1" stop-color="#007cc0"/>
    </radialGradient>
    <radialGradient id="Dégradé_sans_nom_1491" data-name="Dégradé sans nom 149" cx="586" cy="315.9" fx="586" fy="315.9" r="91" xlink:href="#Dégradé_sans_nom_149"/>
  </defs>
  <g>
    <path class="st3" d="M71.3,194.3c-6.7,0-12.4-1.2-17.1-3.5-4.8-2.3-8.4-5.8-10.9-10.5-2.5-4.7-3.8-10.5-3.8-17.5s1.3-12.9,3.8-17.5c2.5-4.6,6.2-8.1,10.9-10.5,4.8-2.3,10.5-3.5,17.1-3.5s12.4,1.2,17.1,3.5c4.8,2.3,8.4,5.8,10.9,10.5,2.5,4.6,3.8,10.5,3.8,17.5s-1.3,12.9-3.8,17.5c-2.5,4.7-6.2,8.2-10.9,10.5-4.8,2.3-10.5,3.5-17.1,3.5ZM71.3,181.9c2.5,0,4.8-.4,6.7-1.2s3.6-1.9,4.9-3.4c1.3-1.5,2.3-3.3,3-5.4.6-2.1,1-4.5,1-7.2v-3.9c0-2.7-.3-5.1-1-7.3-.7-2.1-1.6-3.9-3-5.4-1.3-1.5-3-2.6-4.9-3.4-1.9-.8-4.2-1.2-6.7-1.2s-4.9.4-6.8,1.2c-1.9.8-3.6,1.9-4.9,3.4-1.3,1.5-2.3,3.3-2.9,5.4-.7,2.1-1,4.5-1,7.3v3.9c0,2.7.3,5.1,1,7.2.6,2.1,1.6,3.9,2.9,5.4,1.3,1.5,2.9,2.6,4.9,3.4s4.2,1.2,6.8,1.2Z"/>
    <path class="st3" d="M126.6,186.6v-41.2h-13.8c-3.3,0-5.9-2.7-5.9-5.9v-7.1h55.4v13h-19.8v47.8h-9.2c-3.7,0-6.7-3-6.7-6.7Z"/>
    <path class="st3" d="M171.1,193.3v-46.4h15.9v46.4h-15.9Z"/>
    <path class="st3" d="M200.3,193.3v-60.9h14.1l22.2,28.3c.4.5,1,1.2,1.6,2s1.3,1.8,2,2.7c.6.9,1.1,1.6,1.4,2.2h.4v-35.2h14.7v60.9h-14l-23.5-29.8c-.8-.9-1.5-1.9-2.2-2.9-.7-1-1.2-1.8-1.6-2.5h-.4v35.2h-14.7Z"/>
    <path class="st1" d="M270.2,193.3v-60.9h50.2v7.4c0,2.8-2.2,5-5,5h-29.4v11.4h30v7.1c0,2.8-2.2,5-5,5h-25v12.5h35v7.4c0,2.8-2.2,5-5,5h-45.8Z"/>
    <path class="st3" d="M361.2,194.3c-6.7,0-12.4-1.2-17.1-3.5-4.8-2.3-8.4-5.8-10.9-10.5-2.5-4.7-3.8-10.5-3.8-17.5s1.3-12.9,3.8-17.5c2.5-4.6,6.2-8.1,10.9-10.5,4.8-2.3,10.5-3.5,17.1-3.5s12.4,1.2,17.1,3.5c4.8,2.3,8.4,5.8,10.9,10.5,2.5,4.6,3.8,10.5,3.8,17.5s-1.3,12.9-3.8,17.5c-2.5,4.7-6.2,8.2-10.9,10.5-4.8,2.3-10.5,3.5-17.1,3.5ZM361.2,181.9c2.5,0,4.8-.4,6.7-1.2s3.6-1.9,4.9-3.4c1.3-1.5,2.3-3.3,3-5.4.6-2.1,1-4.5,1-7.2v-3.9c0-2.7-.3-5.1-1-7.3-.7-2.1-1.6-3.9-3-5.4-1.3-1.5-3-2.6-4.9-3.4-1.9-.8-4.2-1.2-6.7-1.2s-4.9.4-6.8,1.2c-1.9.8-3.6,1.9-4.9,3.4-1.3,1.5-2.3,3.3-2.9,5.4-.7,2.1-1,4.5-1,7.3v3.9c0,2.7.3,5.1,1,7.2.6,2.1,1.6,3.9,2.9,5.4,1.3,1.5,2.9,2.6,4.9,3.4,2,.8,4.2,1.2,6.8,1.2Z"/>
  </g>
  <g>
    <path class="st3" d="M232,102.3c-.9,0-1.7-.2-2.4-.5s-1.4-.7-1.9-1.3c-.5-.6-1-1.2-1.3-2-.3-.8-.4-1.6-.4-2.5s.2-1.7.5-2.4.7-1.4,1.3-1.9c.6-.6,1.2-1,2-1.3.7-.3,1.6-.5,2.4-.5s1.1,0,1.7.2c.6.2,1.1.4,1.5.7.5.3.9.6,1.2,1.1l-1.6,1.8c-.3-.3-.6-.5-.8-.7-.3-.2-.6-.4-.9-.5-.3-.1-.7-.2-1-.2s-.9,0-1.4.3c-.4.2-.8.4-1.1.8-.3.3-.6.7-.8,1.2-.2.5-.3,1-.3,1.5s0,1.1.3,1.5c.2.5.4.9.8,1.2s.7.6,1.2.7c.5.2,1,.3,1.5.3s.7,0,1.1-.2.7-.2.9-.4.5-.4.8-.6l1.2,2c-.3.3-.6.6-1.1.8-.5.2-1,.4-1.5.6-.6.1-1.1.2-1.7.2Z"/>
    <path class="st3" d="M242.4,102.3c-.9,0-1.7-.2-2.5-.6s-1.3-1-1.7-1.7c-.4-.7-.6-1.5-.6-2.4s.2-1.7.6-2.4,1-1.3,1.7-1.7c.7-.4,1.5-.6,2.5-.6s1.7.2,2.4.6c.7.4,1.3,1,1.7,1.7s.6,1.5.6,2.4-.2,1.7-.6,2.4c-.4.7-1,1.3-1.7,1.7-.7.4-1.5.6-2.4.6ZM242.4,100.2c.4,0,.8-.1,1.2-.3s.6-.5.8-.9c.2-.4.3-.8.3-1.3s0-.9-.3-1.3-.5-.7-.8-.9c-.4-.2-.7-.3-1.2-.3s-.9.1-1.2.3-.6.5-.8.9c-.2.4-.3.8-.3,1.3,0,.5,0,.9.3,1.3.2.4.5.7.8.9s.8.3,1.2.3Z"/>
    <path class="st3" d="M249,102.2v-9h2.3v1.8c0,0-.4.2-.4.2.1-.4.3-.8.7-1.1s.7-.6,1.2-.8c.5-.2.9-.3,1.4-.3s1.3.1,1.7.4c.5.3.8.7,1,1.2.2.6.3,1.2.3,2v5.5h-2.4v-5.3c0-.4,0-.7-.2-1-.1-.3-.3-.5-.5-.6-.2-.1-.5-.2-.9-.2-.3,0-.5,0-.8.1-.2,0-.4.2-.6.4s-.3.3-.4.5c0,.2-.1.4-.1.7v5.4h-2.4Z"/>
    <path class="st3" d="M259.6,102.2v-9h2.3v1.8c0,0-.4.2-.4.2.1-.4.3-.8.7-1.1s.7-.6,1.2-.8c.5-.2.9-.3,1.4-.3s1.3.1,1.7.4c.5.3.8.7,1,1.2.2.6.3,1.2.3,2v5.5h-2.4v-5.3c0-.4,0-.7-.2-1-.1-.3-.3-.5-.5-.6-.2-.1-.5-.2-.9-.2-.3,0-.5,0-.8.1-.2,0-.4.2-.6.4s-.3.3-.4.5c0,.2-.1.4-.1.7v5.4h-2.4Z"/>
    <path class="st3" d="M274.4,102.3c-1,0-1.8-.2-2.6-.6-.7-.4-1.3-.9-1.7-1.6-.4-.7-.6-1.5-.6-2.4s.1-1.3.3-1.9c.2-.6.5-1.1,1-1.5.4-.4.9-.8,1.5-1,.6-.2,1.2-.3,1.8-.3s1.2.1,1.7.3c.5.2,1,.5,1.4.9.4.4.7.9.9,1.4.2.5.3,1.1.3,1.8v.7h-7.3l-.4-1.5h5.6l-.3.3v-.4c0-.3-.1-.6-.3-.8-.2-.2-.4-.4-.7-.6-.3-.1-.6-.2-.9-.2-.5,0-.9,0-1.3.3-.3.2-.6.5-.8.9s-.3.8-.3,1.4.1,1,.3,1.4c.2.4.6.7,1,.9.4.2.9.3,1.5.3s.8,0,1.1-.2c.3-.1.7-.3,1.1-.6l1.2,1.6c-.3.3-.7.5-1.1.7-.4.2-.8.3-1.2.5-.4.1-.8.2-1.2.2Z"/>
    <path class="st3" d="M284.1,102.3c-.9,0-1.6-.2-2.3-.6-.7-.4-1.2-1-1.6-1.7-.4-.7-.6-1.5-.6-2.4s.2-1.7.6-2.4c.4-.7.9-1.3,1.6-1.7.7-.4,1.5-.6,2.3-.6s1.5.1,2.2.4c.7.3,1.2.7,1.6,1.2l-1.3,1.6c-.2-.2-.4-.4-.6-.6s-.5-.3-.8-.4c-.3-.1-.6-.2-.9-.2-.5,0-.9.1-1.2.3s-.6.5-.8.9c-.2.4-.3.8-.3,1.3s.1.9.3,1.3c.2.4.5.7.9.9.4.2.8.3,1.2.3s.6,0,.8-.1c.3,0,.5-.2.7-.4.2-.2.4-.4.6-.6l1.3,1.6c-.4.5-.9.9-1.6,1.2s-1.4.5-2.2.5Z"/>
    <path class="st3" d="M288.6,95.3v-2.2h5.9v2.2h-5.9ZM290.2,102.2v-11.3h2.4v11.3h-2.4Z"/>
    <path class="st3" d="M300.4,102.3c-1,0-1.8-.2-2.6-.6-.7-.4-1.3-.9-1.7-1.6-.4-.7-.6-1.5-.6-2.4s.1-1.3.3-1.9c.2-.6.5-1.1,1-1.5.4-.4.9-.8,1.5-1,.6-.2,1.2-.3,1.8-.3s1.2.1,1.7.3c.5.2,1,.5,1.4.9.4.4.7.9.9,1.4.2.5.3,1.1.3,1.8v.7h-7.3l-.4-1.5h5.6l-.3.3v-.4c0-.3-.1-.6-.3-.8-.2-.2-.4-.4-.7-.6-.3-.1-.6-.2-.9-.2-.5,0-.9,0-1.3.3-.3.2-.6.5-.8.9s-.3.8-.3,1.4.1,1,.3,1.4c.2.4.6.7,1,.9.4.2.9.3,1.5.3s.8,0,1.1-.2c.3-.1.7-.3,1.1-.6l1.2,1.6c-.3.3-.7.5-1.1.7-.4.2-.8.3-1.2.5-.4.1-.8.2-1.2.2Z"/>
    <path class="st3" d="M306.1,102.2v-9h2.3v2.9c0,0-.3-.6-.3-.6.1-.5.4-.9.7-1.3.3-.4.7-.7,1.1-.9s.8-.3,1.3-.3.4,0,.6,0c.2,0,.3,0,.5.1l-.6,2.7c-.1,0-.3-.1-.5-.2-.2,0-.4,0-.6,0s-.5,0-.8.1c-.2,0-.4.2-.6.4-.2.2-.3.4-.4.6s-.1.5-.1.8v4.7h-2.4Z"/>
    <path class="st3" d="M318.8,102.2v-12.6h2.4v12.6h-2.4Z"/>
    <path class="st3" d="M327.9,102.3c-1,0-1.8-.2-2.6-.6-.7-.4-1.3-.9-1.7-1.6-.4-.7-.6-1.5-.6-2.4s.1-1.3.3-1.9c.2-.6.5-1.1,1-1.5.4-.4.9-.8,1.5-1,.6-.2,1.2-.3,1.8-.3s1.2.1,1.7.3c.5.2,1,.5,1.4.9.4.4.7.9.9,1.4.2.5.3,1.1.3,1.8v.7h-7.3l-.4-1.5h5.6l-.3.3v-.4c0-.3-.1-.6-.3-.8-.2-.2-.4-.4-.7-.6-.3-.1-.6-.2-.9-.2-.5,0-.9,0-1.3.3-.3.2-.6.5-.8.9s-.3.8-.3,1.4.1,1,.3,1.4c.2.4.6.7,1,.9.4.2.9.3,1.5.3s.8,0,1.1-.2c.3-.1.7-.3,1.1-.6l1.2,1.6c-.3.3-.7.5-1.1.7-.4.2-.8.3-1.2.5-.4.1-.8.2-1.2.2Z"/>
    <path class="st3" d="M336.7,102.3c-.8,0-1.6-.1-2.2-.4-.7-.3-1.2-.7-1.6-1.2l1.5-1.3c.4.4.7.6,1.2.8.4.2.9.2,1.3.2s.3,0,.5,0c.1,0,.3,0,.4-.2.1,0,.2-.2.2-.3,0-.1,0-.2,0-.3,0-.2-.1-.4-.3-.6-.1,0-.3-.1-.5-.2-.2,0-.5-.2-.9-.3-.6-.1-1.1-.3-1.5-.5s-.7-.4-1-.7c-.2-.2-.4-.5-.5-.8s-.2-.6-.2-.9,0-.8.3-1.1c.2-.3.4-.6.8-.9.3-.2.7-.4,1.1-.6.4-.1.9-.2,1.3-.2s.9,0,1.4.2c.4.1.9.3,1.2.5.4.2.7.5,1,.7l-1.3,1.4c-.2-.2-.4-.4-.7-.5-.3-.2-.5-.3-.8-.4-.3,0-.5-.1-.7-.1s-.4,0-.5,0c-.2,0-.3,0-.4.2-.1,0-.2.2-.2.3,0,.1,0,.2,0,.3s0,.2,0,.4c0,.1.2.2.3.3.1,0,.3.1.6.2.2,0,.6.2,1,.3.5.1,1,.3,1.4.5.4.2.7.4.9.6.2.2.3.4.4.7,0,.3.1.6.1.9,0,.6-.2,1.1-.5,1.5s-.7.8-1.3,1c-.5.2-1.2.4-1.8.4Z"/>
    <path class="st3" d="M348.6,91.3c-.5,0-.8-.1-1.1-.3s-.4-.6-.4-1,.1-.7.4-.9c.3-.2.6-.4,1.1-.4s.8.1,1.1.3.4.6.4,1-.1.7-.4,1c-.3.2-.6.4-1.1.4ZM347.4,102.2v-9h2.4v9h-2.4Z"/>
    <path class="st3" d="M356,102.3c-.8,0-1.5-.2-2.1-.6-.6-.4-1.1-1-1.5-1.7s-.5-1.5-.5-2.4.2-1.7.5-2.4c.4-.7.8-1.3,1.5-1.7.6-.4,1.3-.6,2.1-.6s.8,0,1.2.2c.4.1.7.3,1.1.5.3.2.6.5.8.8.2.3.3.6.3.9h-.6c0,.1,0-5.8,0-5.8h2.4v12.6h-2.3v-2.1c-.1,0,.4,0,.4,0,0,.3-.1.6-.3.8-.2.3-.4.5-.7.7-.3.2-.6.4-1,.5-.4.1-.8.2-1.2.2ZM356.5,100.3c.5,0,.9-.1,1.2-.3s.6-.5.8-.9c.2-.4.3-.9.3-1.4s0-1-.3-1.4c-.2-.4-.5-.7-.8-.9-.3-.2-.7-.3-1.2-.3s-.8.1-1.2.3c-.3.2-.6.5-.8.9-.2.4-.3.9-.3,1.4s0,1,.3,1.4c.2.4.4.7.8.9s.7.3,1.2.3Z"/>
    <path class="st3" d="M367.8,102.3c-1,0-1.8-.2-2.6-.6-.7-.4-1.3-.9-1.7-1.6-.4-.7-.6-1.5-.6-2.4s.1-1.3.3-1.9c.2-.6.5-1.1,1-1.5.4-.4.9-.8,1.5-1,.6-.2,1.2-.3,1.8-.3s1.2.1,1.7.3c.5.2,1,.5,1.4.9.4.4.7.9.9,1.4.2.5.3,1.1.3,1.8v.7h-7.3l-.4-1.5h5.6l-.3.3v-.4c0-.3-.1-.6-.3-.8-.2-.2-.4-.4-.7-.6-.3-.1-.6-.2-.9-.2-.5,0-.9,0-1.3.3-.3.2-.6.5-.8.9s-.3.8-.3,1.4.1,1,.3,1.4c.2.4.6.7,1,.9.4.2.9.3,1.5.3s.8,0,1.1-.2c.3-.1.7-.3,1.1-.6l1.2,1.6c-.3.3-.7.5-1.1.7-.4.2-.8.3-1.2.5-.4.1-.8.2-1.2.2ZM366.2,92l-.7-1.1,2.8-2.3,1.2,1.7-3.3,1.8Z"/>
    <path class="st3" d="M377.8,102.3c-1,0-1.8-.2-2.6-.6-.7-.4-1.3-.9-1.7-1.6-.4-.7-.6-1.5-.6-2.4s.1-1.3.3-1.9c.2-.6.5-1.1,1-1.5.4-.4.9-.8,1.5-1,.6-.2,1.2-.3,1.8-.3s1.2.1,1.7.3c.5.2,1,.5,1.4.9.4.4.7.9.9,1.4.2.5.3,1.1.3,1.8v.7h-7.3l-.4-1.5h5.6l-.3.3v-.4c0-.3-.1-.6-.3-.8-.2-.2-.4-.4-.7-.6-.3-.1-.6-.2-.9-.2-.5,0-.9,0-1.3.3-.3.2-.6.5-.8.9s-.3.8-.3,1.4.1,1,.3,1.4c.2.4.6.7,1,.9.4.2.9.3,1.5.3s.8,0,1.1-.2c.3-.1.7-.3,1.1-.6l1.2,1.6c-.3.3-.7.5-1.1.7-.4.2-.8.3-1.2.5-.4.1-.8.2-1.2.2Z"/>
    <path class="st3" d="M386.5,102.3c-.8,0-1.6-.1-2.2-.4-.7-.3-1.2-.7-1.6-1.2l1.5-1.3c.4.4.7.6,1.2.8.4.2.9.2,1.3.2s.3,0,.5,0c.1,0,.3,0,.4-.2.1,0,.2-.2.2-.3,0-.1,0-.2,0-.3,0-.2-.1-.4-.3-.6-.1,0-.3-.1-.5-.2-.2,0-.5-.2-.9-.3-.6-.1-1.1-.3-1.5-.5s-.7-.4-1-.7c-.2-.2-.4-.5-.5-.8s-.2-.6-.2-.9,0-.8.3-1.1c.2-.3.4-.6.8-.9.3-.2.7-.4,1.1-.6.4-.1.9-.2,1.3-.2s.9,0,1.4.2c.4.1.9.3,1.2.5.4.2.7.5,1,.7l-1.3,1.4c-.2-.2-.4-.4-.7-.5-.3-.2-.5-.3-.8-.4-.3,0-.5-.1-.7-.1s-.4,0-.5,0c-.2,0-.3,0-.4.2-.1,0-.2.2-.2.3,0,.1,0,.2,0,.3s0,.2,0,.4c0,.1.2.2.3.3.1,0,.3.1.6.2.2,0,.6.2,1,.3.5.1,1,.3,1.4.5.4.2.7.4.9.6.2.2.3.4.4.7,0,.3.1.6.1.9,0,.6-.2,1.1-.5,1.5s-.7.8-1.3,1c-.5.2-1.2.4-1.8.4Z"/>
    <path class="st3" d="M229.8,119.2c-.7,0-1.4-.2-2-.6-.6-.4-1.1-1-1.4-1.7-.4-.7-.5-1.5-.5-2.4s.2-1.7.5-2.4.8-1.2,1.5-1.7c.6-.4,1.3-.6,2.1-.6s.8,0,1.2.2c.4.1.7.3,1,.5.3.2.5.5.7.8.2.3.3.6.4,1h-.5v-2.3h2.4v9h-2.4v-2.2h.5c0,.3-.2.6-.4.9s-.5.5-.8.8c-.3.2-.6.4-1,.5-.4.1-.8.2-1.2.2ZM230.5,117.1c.5,0,.9-.1,1.2-.3s.6-.5.8-.9.3-.8.3-1.4,0-1-.3-1.3c-.2-.4-.5-.7-.8-.9-.3-.2-.7-.3-1.2-.3s-.8.1-1.2.3c-.3.2-.6.5-.8.9s-.3.8-.3,1.3,0,1,.3,1.4c.2.4.5.7.8.9.3.2.7.3,1.2.3Z"/>
    <path class="st3" d="M240.6,119.2c-.7,0-1.2-.1-1.7-.4-.5-.3-.8-.7-1.1-1.2-.3-.5-.4-1.2-.4-2v-5.6h2.4v5.2c0,.4,0,.8.2,1.1.1.3.3.5.6.7.2.2.6.2.9.2s.5,0,.7-.1c.2,0,.4-.2.6-.4s.3-.3.4-.6.1-.4.1-.7v-5.4h2.4v9h-2.3v-1.9c0,0,.4-.2.4-.2-.1.4-.4.8-.7,1.1-.3.3-.7.6-1.1.8-.4.2-.9.3-1.4.3Z"/>
    <path class="st3" d="M247.4,119l3.6-4.9,1.3,1.6-2.1,3.3h-2.8ZM254,119l-2.2-3.2-.7-1-3.6-4.9h2.9l2.2,3.1.8,1,3.6,4.9h-2.9ZM253.2,114.9l-1.3-1.6,1.9-3.4h2.8l-3.5,5Z"/>
    <path class="st3" d="M266.6,119.2c-.8,0-1.6-.1-2.2-.4-.7-.3-1.2-.7-1.6-1.2l1.5-1.3c.4.4.7.6,1.2.8.4.2.9.2,1.3.2s.3,0,.5,0c.1,0,.3,0,.4-.2.1,0,.2-.2.2-.3,0-.1,0-.2,0-.3,0-.2-.1-.4-.3-.6-.1,0-.3-.1-.5-.2-.2,0-.5-.2-.9-.3-.6-.1-1.1-.3-1.5-.5s-.7-.4-1-.7c-.2-.2-.4-.5-.5-.8s-.2-.6-.2-.9,0-.8.3-1.1c.2-.3.4-.6.8-.9.3-.2.7-.4,1.1-.6.4-.1.9-.2,1.3-.2s.9,0,1.4.2c.4.1.9.3,1.2.5.4.2.7.5,1,.7l-1.3,1.4c-.2-.2-.4-.4-.7-.5-.3-.2-.5-.3-.8-.4-.3,0-.5-.1-.7-.1s-.4,0-.5,0c-.2,0-.3,0-.4.2-.1,0-.2.2-.2.3,0,.1,0,.2,0,.3s0,.2,0,.4c0,.1.2.2.3.3.1,0,.3.1.6.2.2,0,.6.2,1,.3.5.1,1,.3,1.4.5.4.2.7.4.9.6.2.2.3.4.4.7,0,.3.1.6.1.9,0,.6-.2,1.1-.5,1.5s-.7.8-1.3,1c-.5.2-1.2.4-1.8.4Z"/>
    <path class="st3" d="M276.1,119.2c-.9,0-1.7-.2-2.5-.6s-1.3-1-1.7-1.7c-.4-.7-.6-1.5-.6-2.4s.2-1.7.6-2.4,1-1.3,1.7-1.7c.7-.4,1.5-.6,2.5-.6s1.7.2,2.4.6c.7.4,1.3,1,1.7,1.7s.6,1.5.6,2.4-.2,1.7-.6,2.4c-.4.7-1,1.3-1.7,1.7-.7.4-1.5.6-2.4.6ZM276.1,117.1c.4,0,.8-.1,1.2-.3s.6-.5.8-.9c.2-.4.3-.8.3-1.3s0-.9-.3-1.3-.5-.7-.8-.9c-.4-.2-.7-.3-1.2-.3s-.9.1-1.2.3-.6.5-.8.9c-.2.4-.3.8-.3,1.3,0,.5,0,.9.3,1.3.2.4.5.7.8.9s.8.3,1.2.3Z"/>
    <path class="st3" d="M282.7,119v-12.6h2.4v12.6h-2.4Z"/>
    <path class="st3" d="M290.7,119.2c-.7,0-1.2-.1-1.7-.4-.5-.3-.8-.7-1.1-1.2-.3-.5-.4-1.2-.4-2v-5.6h2.4v5.2c0,.4,0,.8.2,1.1.1.3.3.5.6.7.2.2.6.2.9.2s.5,0,.7-.1c.2,0,.4-.2.6-.4s.3-.3.4-.6.1-.4.1-.7v-5.4h2.4v9h-2.3v-1.9c0,0,.4-.2.4-.2-.1.4-.4.8-.7,1.1-.3.3-.7.6-1.1.8-.4.2-.9.3-1.4.3Z"/>
    <path class="st3" d="M297.5,112.2v-2.2h5.9v2.2h-5.9ZM299.2,119v-11.3h2.4v11.3h-2.4Z"/>
    <path class="st3" d="M306.5,108.1c-.5,0-.8-.1-1.1-.3s-.4-.6-.4-1,.1-.7.4-.9c.3-.2.6-.4,1.1-.4s.8.1,1.1.3.4.6.4,1-.1.7-.4,1c-.3.2-.6.4-1.1.4ZM305.3,119v-9h2.4v9h-2.4Z"/>
    <path class="st3" d="M314.5,119.2c-.9,0-1.7-.2-2.5-.6s-1.3-1-1.7-1.7c-.4-.7-.6-1.5-.6-2.4s.2-1.7.6-2.4,1-1.3,1.7-1.7c.7-.4,1.5-.6,2.5-.6s1.7.2,2.4.6c.7.4,1.3,1,1.7,1.7s.6,1.5.6,2.4-.2,1.7-.6,2.4c-.4.7-1,1.3-1.7,1.7-.7.4-1.5.6-2.4.6ZM314.5,117.1c.4,0,.8-.1,1.2-.3s.6-.5.8-.9c.2-.4.3-.8.3-1.3s0-.9-.3-1.3-.5-.7-.8-.9c-.4-.2-.7-.3-1.2-.3s-.9.1-1.2.3-.6.5-.8.9c-.2.4-.3.8-.3,1.3,0,.5,0,.9.3,1.3.2.4.5.7.8.9s.8.3,1.2.3Z"/>
    <path class="st3" d="M321,119v-9h2.3v1.8c0,0-.4.2-.4.2.1-.4.3-.8.7-1.1s.7-.6,1.2-.8c.5-.2.9-.3,1.4-.3s1.3.1,1.7.4c.5.3.8.7,1,1.2.2.6.3,1.2.3,2v5.5h-2.4v-5.3c0-.4,0-.7-.2-1-.1-.3-.3-.5-.5-.6-.2-.1-.5-.2-.9-.2-.3,0-.5,0-.8.1-.2,0-.4.2-.6.4s-.3.3-.4.5c0,.2-.1.4-.1.7v5.4h-2.4Z"/>
    <path class="st3" d="M334.7,119.2c-.8,0-1.6-.1-2.2-.4-.7-.3-1.2-.7-1.6-1.2l1.5-1.3c.4.4.7.6,1.2.8.4.2.9.2,1.3.2s.3,0,.5,0c.1,0,.3,0,.4-.2.1,0,.2-.2.2-.3,0-.1,0-.2,0-.3,0-.2-.1-.4-.3-.6-.1,0-.3-.1-.5-.2-.2,0-.5-.2-.9-.3-.6-.1-1.1-.3-1.5-.5s-.7-.4-1-.7c-.2-.2-.4-.5-.5-.8s-.2-.6-.2-.9,0-.8.3-1.1c.2-.3.4-.6.8-.9.3-.2.7-.4,1.1-.6.4-.1.9-.2,1.3-.2s.9,0,1.4.2c.4.1.9.3,1.2.5.4.2.7.5,1,.7l-1.3,1.4c-.2-.2-.4-.4-.7-.5-.3-.2-.5-.3-.8-.4-.3,0-.5-.1-.7-.1s-.4,0-.5,0c-.2,0-.3,0-.4.2-.1,0-.2.2-.2.3,0,.1,0,.2,0,.3s0,.2,0,.4c0,.1.2.2.3.3.1,0,.3.1.6.2.2,0,.6.2,1,.3.5.1,1,.3,1.4.5.4.2.7.4.9.6.2.2.3.4.4.7,0,.3.1.6.1.9,0,.6-.2,1.1-.5,1.5s-.7.8-1.3,1c-.5.2-1.2.4-1.8.4Z"/>
  </g>
  <g>
    <path class="st2" d="M151.9,81.4c0-9.9,1.4-17.1,4.3-21.6,2.9-4.4,7.7-6.6,14.5-6.7v-21.7c-14.4,0-25.2,4-32.6,11.8-7.4,7.8-11.1,19.4-11,34.6v28.3c0,0,18,0,18,0,3.9,0,7-3.1,7-7v-17.7Z"/>
    <path class="st4" d="M190.1,116.1c0,9.9-1.4,17.2-4.3,21.6-2.9,4.5-7.8,6.7-14.7,6.8s0,0,0,0v21.5c0,0,0,0,0,0,14.6,0,25.6-4.1,32.9-12.2,7.3-8.1,10.9-20,10.8-35.7v-27.7c0,0-17.9,0-17.9,0-3.9,0-7,3.1-7,7v18.7Z"/>
  </g>
  <circle class="st0" cx="180.7" cy="42.7" r="3.7"/>
  <circle class="st0" cx="197" cy="47.7" r="3.7"/>
  <circle class="st0" cx="202.6" cy="62.4" r="3.7"/>
  <circle class="st0" cx="202.6" cy="78.9" r="3.7"/>
  <circle class="st0" cx="160.5" cy="155.6" r="3.7"/>
  <circle class="st0" cx="138.5" cy="119.3" r="3.7"/>
</svg>