<?xml version="1.0" encoding="UTF-8"?>
<svg id="Calque_1" xmlns="http://www.w3.org/2000/svg" version="1.1" viewBox="0 0 1002.7 764.3">
  <!-- Generator: Adobe Illustrator 29.2.1, SVG Export Plug-In . SVG Version: 2.1.0 Build 116)  -->
  <defs>
    <style>
      .st0 {
        fill: #0c37eb;
      }

      .st1 {
        fill: #0f8bcf;
      }

      .st2 {
        fill: #10dfb3;
      }

      .st3 {
        fill: #0fa6c4;
      }

      .st4 {
        fill: #0c53e2;
      }

      .st5 {
        fill: #0f6fd8;
      }

      .st6 {
        fill: #14c3bc;
      }

      .st7 {
        fill: #001a78;
      }

      .st8 {
        fill: #0a1bf5;
      }
    </style>
  </defs>
  <g>
    <path class="st7" d="M199.4,504.8c-8.1-7.9-17.5-14.1-28.4-18.5-10.8-4.4-22.6-6.6-35.2-6.6s-24.6,2.2-35.5,6.6c-10.8,4.4-20.2,10.6-28.2,18.5-8,7.9-14.3,17.2-18.7,27.8-4.5,10.6-6.7,22.1-6.7,34.6s2.2,23.8,6.7,34.5c4.5,10.7,10.8,20,19,28,8.2,8,17.7,14.3,28.5,18.7,10.8,4.5,22.6,6.7,35.5,6.7s24.2-2.2,35-6.7c10.8-4.5,20.2-10.7,28.2-18.6,8-7.9,14.3-17.2,18.7-27.9,4.5-10.7,6.7-22.2,6.7-34.5s-2.2-24.1-6.7-34.7c-4.5-10.7-10.8-19.9-18.9-27.9ZM180.1,595.2c-4.2,8.1-10.1,14.4-17.7,18.9-7.6,4.5-16.5,6.7-26.6,6.7s-14.4-1.3-20.7-3.8c-6.2-2.6-11.6-6.2-16-10.9-4.4-4.7-7.8-10.4-10.2-16.9-2.4-6.6-3.6-13.9-3.6-21.9s2.1-20.1,6.2-28c4.2-7.9,10.1-14.1,17.7-18.5,7.6-4.4,16.5-6.6,26.6-6.6s14.4,1.2,20.6,3.7c6.2,2.5,11.5,6.1,16,10.8,4.5,4.7,7.9,10.3,10.3,16.8s3.6,13.7,3.6,21.8-2.1,19.9-6.2,28Z"/>
    <polygon class="st7" points="228.6 515.5 281.8 515.5 281.8 652.3 319.5 652.3 319.5 515.5 372.6 515.5 372.6 482.6 228.6 482.6 228.6 515.5"/>
    <rect class="st7" x="393.8" y="482.6" width="37.7" height="169.7"/>
    <path class="st7" d="M571.2,585.7l-80.5-103.2h-26.4v101.9c0,20.8,16.9,37.7,37.7,37.7h0v-71.5l79.3,101.6h27.6v-132c0-20.8-16.9-37.7-37.7-37.7h0v103.2Z"/>
    <polygon class="st7" points="679.3 581.3 755.1 581.3 755.1 549.9 679.3 549.9 679.3 515 762.3 515 762.3 482.6 679.3 482.6 670.4 482.6 641.6 482.6 641.6 652.3 670.4 652.3 679.3 652.3 763.5 652.3 763.5 619.6 679.3 619.6 679.3 581.3"/>
    <path class="st7" d="M949.3,532.7c-4.5-10.7-10.8-19.9-18.9-27.9s-17.5-14.1-28.4-18.5c-10.8-4.4-22.6-6.6-35.2-6.6s-24.6,2.2-35.5,6.6c-10.8,4.4-20.2,10.6-28.2,18.5-8,7.9-14.3,17.2-18.7,27.8-4.5,10.6-6.7,22.1-6.7,34.6s2.2,23.8,6.7,34.5c4.5,10.7,10.8,20,19,28,8.2,8,17.7,14.3,28.5,18.7,10.8,4.5,22.6,6.7,35.5,6.7s24.2-2.2,35-6.7c10.8-4.5,20.2-10.7,28.2-18.6,8-7.9,14.3-17.2,18.8-27.9,4.5-10.7,6.7-22.2,6.7-34.5s-2.2-24.1-6.7-34.7ZM911.1,595.2c-4.2,8.1-10.1,14.4-17.7,18.9-7.6,4.5-16.5,6.7-26.6,6.7s-14.4-1.3-20.7-3.8c-6.2-2.6-11.6-6.2-16-10.9-4.4-4.7-7.8-10.4-10.2-16.9-2.4-6.6-3.6-13.9-3.6-21.9s2.1-20.1,6.2-28c4.2-7.9,10.1-14.1,17.7-18.5,7.6-4.4,16.5-6.6,26.6-6.6s14.4,1.2,20.5,3.7c6.2,2.5,11.5,6.1,16,10.8,4.5,4.7,7.9,10.3,10.3,16.8,2.4,6.5,3.6,13.7,3.6,21.8s-2.1,19.9-6.2,28Z"/>
  </g>
  <g>
    <g>
      <path class="st5" d="M501.3,319.6h0v60.7h0c-44.4,0-84.7-18.1-113.9-47.3l42.9-42.9c18.2,18.2,43.3,29.4,71,29.4Z"/>
      <path class="st1" d="M572.3,290.1l42.9,42.9c-29.2,29.2-69.5,47.3-113.9,47.3v-60.7c27.7,0,52.8-11.3,71-29.4Z"/>
      <path class="st3" d="M601.8,219.1h60.7c0,44.4-18.1,84.7-47.3,113.9l-42.9-42.9c18.2-18.2,29.4-43.3,29.4-71Z"/>
      <path class="st4" d="M340.2,219.1h60.7c0,27.7,11.3,52.8,29.4,71l-42.9,42.9c-29.2-29.2-47.3-69.5-47.3-113.9Z"/>
      <path class="st2" d="M501.3,118.7v-60.7c44.4,0,84.7,18.1,113.9,47.3l-42.9,42.9c-18.2-18.2-43.3-29.4-71-29.4Z"/>
      <path class="st8" d="M501.3,118.7c-27.7,0-52.8,11.3-71,29.4l-42.9-42.9c29.2-29.2,69.5-47.3,113.9-47.3h0v60.7h0Z"/>
      <path class="st6" d="M601.8,219.1c0-27.7-11.3-52.8-29.4-71l42.9-42.9c29.2,29.2,47.3,69.5,47.3,113.9h0s-60.7,0-60.7,0h0Z"/>
      <path class="st0" d="M400.9,219.1h0s-60.7,0-60.7,0h0c0-44.4,18.1-84.7,47.3-113.9l42.9,42.9c-18.2,18.2-29.4,43.3-29.4,71Z"/>
    </g>
    <path class="st7" d="M317.8,219.1c0-101.2,82.3-183.6,183.6-183.6,101.2,0,183.6,82.3,183.6,183.6,0,101.2-82.3,183.6-183.6,183.6-101.2,0-183.6-82.3-183.6-183.6ZM340.8,219.1c0,88.5,72,160.5,160.5,160.5,88.5,0,160.5-72,160.5-160.5s-72-160.5-160.5-160.5c-88.5,0-160.5,72-160.5,160.5Z"/>
    <path class="st7" d="M400.8,219.1c0-55.4,45.1-100.5,100.5-100.5,55.4,0,100.5,45.1,100.5,100.5,0,55.4-45.1,100.5-100.5,100.5-55.4,0-100.5-45.1-100.5-100.5ZM423.4,219.1c0,43,34.9,77.9,77.9,77.9,43,0,77.9-34.9,77.9-77.9s-34.9-77.9-77.9-77.9c-43,0-77.9,34.9-77.9,77.9Z"/>
  </g>
  <g>
    <path class="st7" d="M113.4,728.7c-2.8,0-5.5-.5-7.9-1.6s-4.5-2.5-6.3-4.3-3.2-4-4.2-6.5c-1-2.5-1.5-5.1-1.5-7.9s.5-5.5,1.5-8c1-2.5,2.4-4.6,4.2-6.5,1.8-1.8,3.9-3.3,6.3-4.3,2.4-1,5-1.6,7.9-1.6s5.8.5,8.2,1.6c2.3,1.1,4.4,2.5,6.3,4.3l-3.7,3.7c-1.2-1.4-2.8-2.5-4.6-3.3s-3.9-1.2-6.2-1.2-4,.4-5.7,1.1-3.3,1.8-4.5,3.2c-1.3,1.4-2.3,3-3,4.8-.7,1.9-1.1,3.9-1.1,6.1s.3,4.2,1.1,6.1c.7,1.9,1.7,3.5,3,4.8,1.3,1.4,2.8,2.4,4.5,3.2s3.7,1.1,5.7,1.1,4.6-.4,6.4-1.2c1.8-.8,3.4-1.9,4.6-3.3l3.7,3.6c-1.8,1.9-3.9,3.4-6.4,4.4s-5.2,1.6-8.3,1.6Z"/>
    <path class="st7" d="M145.1,728.7c-2.7,0-5-.6-7.2-1.9-2.1-1.3-3.8-2.9-5.1-5.1-1.2-2.1-1.9-4.5-1.9-7.2s.6-5,1.9-7.1c1.3-2.1,2.9-3.8,5.1-5,2.1-1.2,4.5-1.9,7.2-1.9s5,.6,7.1,1.8c2.1,1.2,3.8,2.9,5.1,5,1.3,2.1,1.9,4.5,1.9,7.1s-.6,5-1.9,7.2c-1.2,2.1-2.9,3.8-5.1,5.1-2.1,1.2-4.5,1.9-7.1,1.9ZM145.1,723.8c1.7,0,3.2-.4,4.5-1.2,1.3-.8,2.4-1.9,3.1-3.3.8-1.4,1.1-3,1.1-4.7s-.4-3.3-1.2-4.7c-.8-1.4-1.8-2.4-3.1-3.2s-2.8-1.2-4.5-1.2-3.2.4-4.5,1.2c-1.3.8-2.4,1.8-3.1,3.2-.8,1.4-1.1,2.9-1.1,4.7s.4,3.4,1.1,4.7c.8,1.4,1.8,2.5,3.1,3.3,1.3.8,2.8,1.2,4.5,1.2Z"/>
    <path class="st7" d="M164.9,728.2v-27h5.1v27h-5.1ZM184,728.2v-15.7c0-2-.6-3.7-1.9-5.1s-3-2-5-2-2.6.3-3.6.9c-1.1.6-1.9,1.4-2.5,2.5-.6,1.1-.9,2.3-.9,3.6l-2.1-1.2c0-2,.5-3.9,1.4-5.5s2.2-2.8,3.8-3.8c1.6-.9,3.5-1.4,5.5-1.4s3.9.5,5.4,1.5c1.6,1,2.8,2.4,3.7,4,.9,1.6,1.4,3.4,1.4,5.3v16.8h-5.1Z"/>
    <path class="st7" d="M196.1,728.2v-27h5.1v27h-5.1ZM215.2,728.2v-15.7c0-2-.6-3.7-1.9-5.1s-3-2-5-2-2.6.3-3.6.9c-1.1.6-1.9,1.4-2.5,2.5-.6,1.1-.9,2.3-.9,3.6l-2.1-1.2c0-2,.5-3.9,1.4-5.5s2.2-2.8,3.8-3.8c1.6-.9,3.5-1.4,5.5-1.4s3.9.5,5.4,1.5c1.6,1,2.8,2.4,3.7,4,.9,1.6,1.4,3.4,1.4,5.3v16.8h-5.1Z"/>
    <path class="st7" d="M239.7,728.7c-2.7,0-5.1-.6-7.3-1.8-2.2-1.2-3.9-2.9-5.1-5-1.2-2.1-1.9-4.5-1.9-7.2s.6-5,1.8-7.2c1.2-2.1,2.9-3.8,5-5,2.1-1.2,4.5-1.8,7.1-1.8s4.7.6,6.6,1.7c1.9,1.1,3.4,2.7,4.5,4.7,1.1,2,1.6,4.3,1.6,6.8s0,.8,0,1.2c0,.4-.1.9-.2,1.5h-22.8v-4.3h20.1l-1.9,1.6c0-1.8-.3-3.4-1-4.6s-1.6-2.3-2.7-3c-1.2-.7-2.6-1.1-4.3-1.1s-3.3.4-4.6,1.1c-1.3.8-2.3,1.8-3.1,3.2-.7,1.4-1.1,3-1.1,4.8s.4,3.6,1.1,5c.8,1.4,1.8,2.5,3.2,3.3,1.4.8,3,1.2,4.8,1.2s2.9-.3,4.2-.8c1.3-.5,2.4-1.3,3.3-2.4l3.3,3.4c-1.3,1.5-2.9,2.7-4.7,3.5s-3.9,1.2-6,1.2Z"/>
    <path class="st7" d="M270,728.7c-2.7,0-5-.6-7.2-1.9-2.1-1.3-3.8-2.9-5.1-5.1s-1.8-4.5-1.8-7.1.6-5,1.8-7.2c1.2-2.1,2.9-3.8,5.1-5,2.1-1.2,4.5-1.8,7.2-1.8s4,.4,5.8,1.2,3.3,1.9,4.6,3.4l-3.4,3.4c-.8-1-1.8-1.7-3-2.2-1.2-.5-2.5-.8-3.9-.8s-3.2.4-4.5,1.2c-1.3.8-2.4,1.8-3.1,3.2-.8,1.4-1.1,2.9-1.1,4.7s.4,3.4,1.1,4.7c.8,1.4,1.8,2.4,3.1,3.2,1.3.8,2.8,1.2,4.5,1.2s2.8-.3,3.9-.8c1.2-.5,2.2-1.3,3.1-2.2l3.4,3.4c-1.3,1.4-2.8,2.6-4.6,3.3-1.8.8-3.7,1.2-5.8,1.2Z"/>
    <path class="st7" d="M282.6,705.8v-4.7h18.4v4.7h-18.4ZM289.3,728.2v-38.3h5.1v38.3h-5.1Z"/>
    <path class="st7" d="M317.7,728.7c-2.7,0-5.1-.6-7.3-1.8-2.2-1.2-3.9-2.9-5.1-5-1.2-2.1-1.9-4.5-1.9-7.2s.6-5,1.8-7.2c1.2-2.1,2.9-3.8,5-5,2.1-1.2,4.5-1.8,7.1-1.8s4.7.6,6.6,1.7c1.9,1.1,3.4,2.7,4.5,4.7,1.1,2,1.6,4.3,1.6,6.8s0,.8,0,1.2c0,.4-.1.9-.2,1.5h-22.8v-4.3h20.1l-1.9,1.6c0-1.8-.3-3.4-1-4.6s-1.6-2.3-2.7-3c-1.2-.7-2.6-1.1-4.3-1.1s-3.3.4-4.6,1.1c-1.3.8-2.3,1.8-3.1,3.2-.7,1.4-1.1,3-1.1,4.8s.4,3.6,1.1,5c.8,1.4,1.8,2.5,3.2,3.3,1.4.8,3,1.2,4.8,1.2s2.9-.3,4.2-.8c1.3-.5,2.4-1.3,3.3-2.4l3.3,3.4c-1.3,1.5-2.9,2.7-4.7,3.5s-3.9,1.2-6,1.2Z"/>
    <path class="st7" d="M335.6,728.2v-27h5.1v27h-5.1ZM340.7,712.8l-1.9-.9c0-3.4.8-6.2,2.4-8.2,1.6-2,3.9-3.1,6.9-3.1s2.6.2,3.7.7c1.1.5,2.1,1.3,3.1,2.4l-3.4,3.5c-.6-.6-1.2-1-1.9-1.3-.7-.3-1.5-.4-2.4-.4-1.9,0-3.4.6-4.7,1.8s-1.8,3-1.8,5.5Z"/>
    <path class="st7" d="M371.3,728.2v-40.6h5.1v40.6h-5.1Z"/>
    <path class="st7" d="M396.4,728.7c-2.7,0-5.1-.6-7.3-1.8-2.2-1.2-3.9-2.9-5.1-5-1.2-2.1-1.9-4.5-1.9-7.2s.6-5,1.8-7.2c1.2-2.1,2.9-3.8,5-5,2.1-1.2,4.5-1.8,7.1-1.8s4.7.6,6.6,1.7c1.9,1.1,3.4,2.7,4.5,4.7,1.1,2,1.6,4.3,1.6,6.8s0,.8,0,1.2c0,.4-.1.9-.2,1.5h-22.8v-4.3h20.1l-1.9,1.6c0-1.8-.3-3.4-1-4.6s-1.6-2.3-2.7-3c-1.2-.7-2.6-1.1-4.3-1.1s-3.3.4-4.6,1.1c-1.3.8-2.3,1.8-3.1,3.2-.7,1.4-1.1,3-1.1,4.8s.4,3.6,1.1,5c.8,1.4,1.8,2.5,3.2,3.3,1.4.8,3,1.2,4.8,1.2s2.9-.3,4.2-.8c1.3-.5,2.4-1.3,3.3-2.4l3.3,3.4c-1.3,1.5-2.9,2.7-4.7,3.5s-3.9,1.2-6,1.2Z"/>
    <path class="st7" d="M422.9,728.7c-1.5,0-2.9-.2-4.3-.6s-2.6-1-3.7-1.7-2.1-1.6-3-2.6l3.3-3.3c1,1.2,2.1,2.1,3.4,2.7,1.3.6,2.7.9,4.3.9s2.8-.3,3.7-.8c.9-.5,1.3-1.3,1.3-2.3s-.4-1.8-1.1-2.3c-.7-.5-1.6-1-2.7-1.4-1.1-.4-2.3-.7-3.5-1.1-1.2-.4-2.4-.8-3.5-1.4-1.1-.6-2-1.3-2.7-2.3-.7-1-1.1-2.3-1.1-3.9s.4-3,1.2-4.2c.8-1.2,1.9-2.1,3.3-2.8,1.4-.6,3.1-1,5.1-1s4,.4,5.7,1.1,3,1.8,4.1,3.3l-3.3,3.3c-.8-1-1.7-1.7-2.8-2.3-1.1-.5-2.4-.8-3.8-.8s-2.6.3-3.4.8c-.8.5-1.2,1.2-1.2,2.1s.3,1.6,1,2.1c.7.5,1.6.9,2.7,1.2,1.1.3,2.3.7,3.5,1.1,1.2.4,2.4.8,3.5,1.5,1.1.6,2,1.4,2.7,2.4s1.1,2.4,1.1,4c0,2.5-.9,4.5-2.7,6s-4.2,2.2-7.2,2.2Z"/>
    <path class="st7" d="M453,695.8c-.9,0-1.7-.3-2.3-.9-.6-.6-.9-1.4-.9-2.4s.3-1.7.9-2.3c.6-.6,1.4-.9,2.3-.9s1.7.3,2.3.9c.6.6.9,1.4.9,2.3s-.3,1.7-.9,2.4c-.6.6-1.4.9-2.3.9ZM450.5,728.2v-27h5.1v27h-5.1Z"/>
    <path class="st7" d="M474.6,728.7c-2.5,0-4.7-.6-6.7-1.8-2-1.2-3.5-2.9-4.7-5-1.2-2.1-1.7-4.5-1.7-7.2s.6-5,1.7-7.2c1.2-2.1,2.7-3.8,4.7-5.1,2-1.2,4.2-1.9,6.7-1.9s3.8.4,5.5,1.3c1.6.9,2.9,2,3.9,3.5,1,1.5,1.6,3.2,1.7,5.2v8.1c-.1,1.9-.7,3.7-1.6,5.2-1,1.5-2.3,2.7-3.9,3.6-1.6.9-3.5,1.3-5.5,1.3ZM475.4,723.9c1.7,0,3.2-.4,4.5-1.2s2.3-1.9,3-3.3c.7-1.4,1.1-3,1.1-4.7s-.4-3.5-1.1-4.8c-.7-1.4-1.7-2.4-3-3.2-1.3-.8-2.8-1.2-4.5-1.2s-3.2.4-4.5,1.2c-1.3.8-2.3,1.9-3,3.3-.7,1.4-1.1,3-1.1,4.7s.4,3.4,1.1,4.8c.7,1.4,1.8,2.5,3.1,3.3s2.8,1.2,4.5,1.2ZM488.8,728.2h-5.2v-7.3l1-6.6-1-6.5v-20.2h5.2v40.6Z"/>
    <path class="st7" d="M508.7,728.7c-2.7,0-5.1-.6-7.3-1.8-2.2-1.2-3.9-2.9-5.1-5-1.2-2.1-1.9-4.5-1.9-7.2s.6-5,1.8-7.2c1.2-2.1,2.9-3.8,5-5,2.1-1.2,4.5-1.8,7.1-1.8s4.7.6,6.6,1.7c1.9,1.1,3.4,2.7,4.5,4.7,1.1,2,1.6,4.3,1.6,6.8s0,.8,0,1.2c0,.4-.1.9-.2,1.5h-22.8v-4.3h20.1l-1.9,1.6c0-1.8-.3-3.4-1-4.6-.6-1.3-1.6-2.3-2.7-3-1.2-.7-2.6-1.1-4.3-1.1s-3.3.4-4.6,1.1c-1.3.8-2.3,1.8-3.1,3.2-.7,1.4-1.1,3-1.1,4.8s.4,3.6,1.1,5c.8,1.4,1.8,2.5,3.2,3.3,1.4.8,3,1.2,4.8,1.2s2.9-.3,4.2-.8,2.4-1.3,3.3-2.4l3.3,3.4c-1.3,1.5-2.9,2.7-4.7,3.5s-3.9,1.2-6,1.2ZM504.9,697.1l-2.3-2.3,7.4-9.1,4,4-9.1,7.4Z"/>
    <path class="st7" d="M539.2,728.7c-2.7,0-5.1-.6-7.3-1.8-2.2-1.2-3.9-2.9-5.1-5-1.2-2.1-1.9-4.5-1.9-7.2s.6-5,1.8-7.2c1.2-2.1,2.9-3.8,5-5,2.1-1.2,4.5-1.8,7.1-1.8s4.7.6,6.6,1.7,3.4,2.7,4.5,4.7,1.6,4.3,1.6,6.8,0,.8,0,1.2c0,.4-.1.9-.2,1.5h-22.8v-4.3h20.1l-1.9,1.6c0-1.8-.3-3.4-1-4.6-.6-1.3-1.6-2.3-2.7-3-1.2-.7-2.6-1.1-4.3-1.1s-3.3.4-4.6,1.1c-1.3.8-2.3,1.8-3.1,3.2-.7,1.4-1.1,3-1.1,4.8s.4,3.6,1.1,5c.8,1.4,1.8,2.5,3.2,3.3,1.4.8,3,1.2,4.8,1.2s2.9-.3,4.2-.8c1.3-.5,2.4-1.3,3.3-2.4l3.3,3.4c-1.3,1.5-2.9,2.7-4.7,3.5s-3.9,1.2-6,1.2Z"/>
    <path class="st7" d="M565.7,728.7c-1.5,0-2.9-.2-4.3-.6s-2.6-1-3.7-1.7-2.1-1.6-3-2.6l3.3-3.3c1,1.2,2.1,2.1,3.4,2.7,1.3.6,2.7.9,4.3.9s2.8-.3,3.7-.8c.9-.5,1.3-1.3,1.3-2.3s-.4-1.8-1.1-2.3c-.7-.5-1.6-1-2.7-1.4s-2.3-.7-3.5-1.1c-1.2-.4-2.4-.8-3.5-1.4-1.1-.6-2-1.3-2.7-2.3-.7-1-1.1-2.3-1.1-3.9s.4-3,1.2-4.2c.8-1.2,1.9-2.1,3.3-2.8,1.4-.6,3.1-1,5.1-1s4,.4,5.7,1.1c1.6.7,3,1.8,4.1,3.3l-3.3,3.3c-.8-1-1.7-1.7-2.8-2.3-1.1-.5-2.4-.8-3.8-.8s-2.6.3-3.4.8c-.8.5-1.2,1.2-1.2,2.1s.3,1.6,1,2.1c.7.5,1.6.9,2.7,1.2s2.3.7,3.5,1.1c1.2.4,2.4.8,3.5,1.5s2,1.4,2.7,2.4c.7,1,1.1,2.4,1.1,4,0,2.5-.9,4.5-2.7,6s-4.2,2.2-7.2,2.2Z"/>
    <path class="st7" d="M604.7,728.7c-2.5,0-4.7-.6-6.7-1.8-2-1.2-3.6-2.9-4.7-5-1.2-2.1-1.7-4.5-1.7-7.2s.6-5,1.7-7.2c1.2-2.1,2.7-3.8,4.7-5.1,2-1.2,4.2-1.9,6.7-1.9s3.9.4,5.5,1.3,2.9,2,3.9,3.5c1,1.5,1.5,3.2,1.6,5.2v8.1c-.1,1.9-.7,3.7-1.6,5.2-1,1.5-2.3,2.7-3.9,3.6-1.6.9-3.5,1.3-5.5,1.3ZM605.5,723.9c2.5,0,4.6-.9,6.1-2.6,1.6-1.7,2.3-3.9,2.3-6.6s-.4-3.5-1.1-4.9c-.7-1.4-1.7-2.5-3-3.2-1.3-.8-2.8-1.2-4.5-1.2s-3.2.4-4.5,1.2c-1.3.8-2.3,1.9-3.1,3.3-.7,1.4-1.1,3-1.1,4.7s.4,3.4,1.1,4.8c.7,1.4,1.8,2.5,3.1,3.3,1.3.8,2.8,1.2,4.5,1.2ZM613.6,728.2v-7.3l1-6.6-1-6.5v-6.6h5.2v27h-5.2Z"/>
    <path class="st7" d="M637.2,728.7c-2.2,0-4.2-.5-6-1.5-1.8-1-3.1-2.4-4.1-4.2-1-1.8-1.5-3.8-1.5-6.2v-15.7h5.1v15.5c0,1.5.3,2.8.8,3.8.5,1.1,1.3,1.9,2.2,2.5,1,.6,2.1.9,3.5.9,2,0,3.6-.6,4.7-1.9s1.7-3,1.7-5.3v-15.5h5.1v15.7c0,2.3-.5,4.4-1.5,6.2-1,1.8-2.3,3.2-4.1,4.2s-3.7,1.5-6,1.5Z"/>
    <path class="st7" d="M652.8,728.2l11.1-15,2.9,3.8-8,11.3h-6ZM673.3,728.2l-8.4-11.8-1-.9-10.6-14.3h6.2l7.7,10.5,1,.8,11.4,15.7h-6.2ZM668.5,715.4l-3-3.6,7.4-10.6h6l-10.5,14.2Z"/>
    <path class="st7" d="M704.6,728.7c-1.5,0-2.9-.2-4.3-.6s-2.6-1-3.7-1.7-2.1-1.6-3-2.6l3.3-3.3c1,1.2,2.1,2.1,3.4,2.7,1.3.6,2.7.9,4.3.9s2.8-.3,3.7-.8c.9-.5,1.3-1.3,1.3-2.3s-.4-1.8-1.1-2.3c-.7-.5-1.6-1-2.7-1.4-1.1-.4-2.3-.7-3.5-1.1-1.2-.4-2.4-.8-3.5-1.4-1.1-.6-2-1.3-2.7-2.3-.7-1-1.1-2.3-1.1-3.9s.4-3,1.2-4.2c.8-1.2,1.9-2.1,3.3-2.8s3.1-1,5.1-1,4,.4,5.7,1.1c1.6.7,3,1.8,4.1,3.3l-3.3,3.3c-.8-1-1.7-1.7-2.8-2.3s-2.4-.8-3.8-.8-2.6.3-3.4.8-1.2,1.2-1.2,2.1.3,1.6,1,2.1c.7.5,1.6.9,2.7,1.2,1.1.3,2.3.7,3.5,1.1,1.2.4,2.4.8,3.5,1.5,1.1.6,2,1.4,2.7,2.4.7,1,1.1,2.4,1.1,4,0,2.5-.9,4.5-2.7,6s-4.2,2.2-7.2,2.2Z"/>
    <path class="st7" d="M732.6,728.7c-2.7,0-5-.6-7.2-1.9-2.1-1.3-3.8-2.9-5.1-5.1s-1.9-4.5-1.9-7.2.6-5,1.9-7.1,2.9-3.8,5.1-5c2.1-1.2,4.5-1.9,7.2-1.9s5,.6,7.1,1.8c2.1,1.2,3.8,2.9,5.1,5,1.3,2.1,1.9,4.5,1.9,7.1s-.6,5-1.9,7.2c-1.2,2.1-2.9,3.8-5.1,5.1-2.1,1.2-4.5,1.9-7.1,1.9ZM732.6,723.8c1.7,0,3.2-.4,4.5-1.2s2.4-1.9,3.1-3.3c.8-1.4,1.1-3,1.1-4.7s-.4-3.3-1.2-4.7c-.8-1.4-1.8-2.4-3.1-3.2-1.3-.8-2.8-1.2-4.5-1.2s-3.2.4-4.5,1.2-2.4,1.8-3.1,3.2c-.8,1.4-1.1,2.9-1.1,4.7s.4,3.4,1.1,4.7c.8,1.4,1.8,2.5,3.1,3.3s2.8,1.2,4.5,1.2Z"/>
    <path class="st7" d="M752.5,728.2v-40.6h5.1v40.6h-5.1Z"/>
    <path class="st7" d="M776,728.7c-2.2,0-4.2-.5-6-1.5-1.8-1-3.1-2.4-4.1-4.2-1-1.8-1.5-3.8-1.5-6.2v-15.7h5.1v15.5c0,1.5.3,2.8.8,3.8.5,1.1,1.3,1.9,2.2,2.5,1,.6,2.1.9,3.5.9,2,0,3.6-.6,4.7-1.9s1.7-3,1.7-5.3v-15.5h5.1v15.7c0,2.3-.5,4.4-1.5,6.2-1,1.8-2.3,3.2-4.1,4.2s-3.7,1.5-6,1.5Z"/>
    <path class="st7" d="M791.9,705.8v-4.7h18.4v4.7h-18.4ZM798.5,728.2v-38.3h5.1v38.3h-5.1Z"/>
    <path class="st7" d="M817.9,695.8c-.9,0-1.7-.3-2.3-.9-.6-.6-.9-1.4-.9-2.4s.3-1.7.9-2.3c.6-.6,1.4-.9,2.3-.9s1.7.3,2.3.9c.6.6.9,1.4.9,2.3s-.3,1.7-.9,2.4c-.6.6-1.4.9-2.3.9ZM815.4,728.2v-27h5.1v27h-5.1Z"/>
    <path class="st7" d="M840.4,728.7c-2.7,0-5-.6-7.2-1.9-2.1-1.3-3.8-2.9-5.1-5.1-1.2-2.1-1.9-4.5-1.9-7.2s.6-5,1.9-7.1c1.3-2.1,2.9-3.8,5.1-5,2.1-1.2,4.5-1.9,7.2-1.9s5,.6,7.1,1.8c2.1,1.2,3.8,2.9,5.1,5,1.2,2.1,1.9,4.5,1.9,7.1s-.6,5-1.9,7.2-2.9,3.8-5.1,5.1c-2.1,1.2-4.5,1.9-7.1,1.9ZM840.4,723.8c1.7,0,3.2-.4,4.5-1.2,1.3-.8,2.4-1.9,3.1-3.3.8-1.4,1.1-3,1.1-4.7s-.4-3.3-1.2-4.7c-.8-1.4-1.8-2.4-3.1-3.2-1.3-.8-2.8-1.2-4.5-1.2s-3.2.4-4.5,1.2c-1.3.8-2.4,1.8-3.1,3.2-.8,1.4-1.1,2.9-1.1,4.7s.4,3.4,1.1,4.7c.8,1.4,1.8,2.5,3.1,3.3,1.3.8,2.8,1.2,4.5,1.2Z"/>
    <path class="st7" d="M860.2,728.2v-27h5.1v27h-5.1ZM879.3,728.2v-15.7c0-2-.6-3.7-1.9-5.1-1.3-1.3-3-2-5-2s-2.6.3-3.6.9c-1.1.6-1.9,1.4-2.5,2.5-.6,1.1-.9,2.3-.9,3.6l-2.1-1.2c0-2,.5-3.9,1.4-5.5.9-1.6,2.2-2.8,3.8-3.8,1.6-.9,3.5-1.4,5.5-1.4s3.9.5,5.4,1.5c1.6,1,2.8,2.4,3.7,4,.9,1.6,1.4,3.4,1.4,5.3v16.8h-5.1Z"/>
    <path class="st7" d="M899.9,728.7c-1.5,0-2.9-.2-4.3-.6s-2.6-1-3.7-1.7-2.1-1.6-3-2.6l3.3-3.3c1,1.2,2.1,2.1,3.4,2.7,1.3.6,2.7.9,4.3.9s2.8-.3,3.7-.8c.9-.5,1.3-1.3,1.3-2.3s-.4-1.8-1.1-2.3c-.7-.5-1.6-1-2.7-1.4-1.1-.4-2.3-.7-3.5-1.1-1.2-.4-2.4-.8-3.5-1.4-1.1-.6-2-1.3-2.7-2.3-.7-1-1.1-2.3-1.1-3.9s.4-3,1.2-4.2c.8-1.2,1.9-2.1,3.3-2.8s3.1-1,5.1-1,4,.4,5.7,1.1c1.6.7,3,1.8,4.1,3.3l-3.3,3.3c-.8-1-1.7-1.7-2.8-2.3s-2.4-.8-3.8-.8-2.6.3-3.4.8-1.2,1.2-1.2,2.1.3,1.6,1,2.1c.7.5,1.6.9,2.7,1.2,1.1.3,2.3.7,3.5,1.1,1.2.4,2.4.8,3.5,1.5,1.1.6,2,1.4,2.7,2.4.7,1,1.1,2.4,1.1,4,0,2.5-.9,4.5-2.7,6s-4.2,2.2-7.2,2.2Z"/>
  </g>
  <g>
    <g>
      <circle class="st5" cx="631.7" cy="222.4" r="17.8"/>
      <circle class="st3" cx="718.5" cy="222.4" r="15.9"/>
      <circle class="st2" cx="785.7" cy="222.4" r="14.4"/>
    </g>
    <g>
      <circle class="st8" cx="217" cy="221.8" r="14.4"/>
      <circle class="st4" cx="279.7" cy="221.8" r="16.8"/>
    </g>
  </g>
  <circle class="st7" cx="501.2" cy="222.4" r="22.9"/>
</svg>